<svg t="1623987490589" class="icon" viewBox="0 0 1024 1024" version="1.1" xmlns="http://www.w3.org/2000/svg" p-id="2671"
     width="64" height="64">
  <path d="M464.92790555 379.98541095L464.92790555 59.35486967 651.99629995 270.87451181Z" fill="#4abf8a" p-id="2672"
        data-spm-anchor-id="a313x.7781069.0.i39" class="selected"></path>
  <path d="M464.92790555 59.35486967L308.1394345 275.22341153 464.92790555 379.98541095Z" fill="#4abf8a" p-id="2673"
        data-spm-anchor-id="a313x.7781069.0.i38" class="selected"></path>
  <path d="M116.98727 536.04838022L21.86642225 665.8370988 461.53675199 959.60353371 461.53675199 767.03119354Z"
        fill="#4abf8a" p-id="2674" data-spm-anchor-id="a313x.7781069.0.i35" class="selected"></path>
  <path d="M461.53675199 767.03119354L461.53675199 959.60353371 994.21102449 659.48022514 875.03353645 525.8214818Z"
        fill="#4abf8a" p-id="2675" data-spm-anchor-id="a313x.7781069.0.i42" class="selected"></path>
  <path d="M209.76513661 408.45260863L138.99277766 505.01212722 462.62192053 721.11907597 462.62192053 577.83767617Z"
        fill="#4abf8a" p-id="2676" data-spm-anchor-id="a313x.7781069.0.i36" class="selected"></path>
  <path d="M463.84890144 576.59219814L463.84890144 719.93525557 854.25912059 499.96650009 765.61846185 400.5584122Z"
        fill="#4abf8a" p-id="2677" data-spm-anchor-id="a313x.7781069.0.i41" class="selected"></path>
  <path d="M284.57605159 305.18271587L233.96564479 374.24100095 464.16540957 528.0205932 464.16540957 425.54813711Z"
        fill="#4abf8a" p-id="2678" data-spm-anchor-id="a313x.7781069.0.i37" class="selected"></path>
  <path d="M464.16540957 425.54813711L464.16540957 528.0205932 741.1898202 372.0069508 677.82867369 300.9448007Z"
        fill="#4abf8a" p-id="2679" data-spm-anchor-id="a313x.7781069.0.i40" class="selected"></path>
</svg>
